<?xml version="1.0" encoding="iso-8859-1"?>
<!-- Generator: Adobe Illustrator 18.1.1, SVG Export Plug-In . SVG Version: 6.00 Build 0)  -->
<svg version="1.1" id="Capa_1" xmlns="http://www.w3.org/2000/svg" xmlns:xlink="http://www.w3.org/1999/xlink" x="0px" y="0px"
	 viewBox="0 0 149.172 149.172" style="enable-background:new 0 0 149.172 149.172;" xml:space="preserve">
<g>
	<g>
		<path style="fill:#010002;" d="M80.362,86.215h-11.2c-4.129,0-6.969,1.748-6.969,6.337v7.524c0,4.046,2.112,6.062,7.614,6.062
			h10.37c3.938,0,6.796-1.927,6.796-6.062v-7.524C86.973,88.34,84.306,86.215,80.362,86.215z"/>
		<path style="fill:#010002;" d="M80.183,57.849h-10.37c-4.773,0-7.614,0.841-7.614,7.62v5.048c0,5.233,3.855,6.432,6.969,6.432
			h11.2c5.692,0,6.611-3.312,6.611-6.432v-5.048C86.973,59.52,84.491,57.849,80.183,57.849z"/>
		<path style="fill:#010002;" d="M145.783,28.343c-1.748,1.844-4.046,2.983-6.617,2.983c-2.518,0-4.845-1.122-6.611-2.983h-2.918
			c-1.778,1.862-4.093,2.983-6.605,2.983s-4.839-1.122-6.611-2.983h-2.93c-1.772,1.862-4.099,2.983-6.611,2.983
			c-2.512,0-4.845-1.122-6.611-2.983h-2.924c-1.772,1.862-4.093,2.983-6.599,2.983s-4.845-1.122-6.611-2.983h-2.924
			c-1.772,1.862-4.099,2.983-6.605,2.983c-2.518,0-4.839-1.122-6.611-2.983h-2.924c-1.772,1.862-4.093,2.983-6.611,2.983
			s-4.839-1.122-6.611-2.983h-2.924c-1.772,1.862-4.087,2.983-6.605,2.983c-2.518,0-4.839-1.122-6.611-2.983h-2.924
			c-1.772,1.862-4.093,2.983-6.611,2.983c-2.518,0-4.839-1.11-6.611-2.983h-2.924c-1.772,1.874-4.093,2.983-6.611,2.983
			c-2.578,0-4.863-1.14-6.623-2.983H0v107.404h149.172V28.343H145.783z M97.612,69.425c0.095,2.202-0.453,9.463-6.88,10.645
			c5.412,1.008,6.969,8.443,6.88,12.387v8.27c0,13.032-8.718,15.138-15.597,15.138H68.339c-16.337,0-16.797-10.466-16.797-14.965
			v-7.53c0-6.056,3.306-9.082,7.53-10.185c-6.241-2.482-7.53-7.984-7.53-13.115v-5.973c0-12.483,7.339-15.872,16.797-15.872H82.11
			c10.185,0,15.52,4.499,15.52,15.872v5.328C97.63,69.425,97.612,69.425,97.612,69.425z"/>
		<ellipse style="fill:#010002;" cx="10" cy="19.392" rx="4.04" ry="5.967"/>
		<ellipse style="fill:#010002;" cx="26.141" cy="19.392" rx="4.034" ry="5.967"/>
		<ellipse style="fill:#010002;" cx="42.287" cy="19.392" rx="4.034" ry="5.967"/>
		<ellipse style="fill:#010002;" cx="58.434" cy="19.392" rx="4.04" ry="5.967"/>
		<ellipse style="fill:#010002;" cx="74.58" cy="19.392" rx="4.034" ry="5.967"/>
		<ellipse style="fill:#010002;" cx="90.726" cy="19.392" rx="4.034" ry="5.967"/>
		<ellipse style="fill:#010002;" cx="106.873" cy="19.392" rx="4.034" ry="5.967"/>
		<ellipse style="fill:#010002;" cx="123.019" cy="19.392" rx="4.034" ry="5.967"/>
		<ellipse style="fill:#010002;" cx="139.159" cy="19.392" rx="4.04" ry="5.967"/>
	</g>
</g>
<g>
</g>
<g>
</g>
<g>
</g>
<g>
</g>
<g>
</g>
<g>
</g>
<g>
</g>
<g>
</g>
<g>
</g>
<g>
</g>
<g>
</g>
<g>
</g>
<g>
</g>
<g>
</g>
<g>
</g>
</svg>
