<svg id="Layer_2" data-name="Layer 2" xmlns="http://www.w3.org/2000/svg" viewBox="0 0 850 480"><defs><style>.cls-1{fill:none;stroke:#fff;stroke-miterlimit:10;stroke-width:3px;}.cls-2{font-size:28px;font-family:OpenSans-Bold, Open Sans;font-weight:700;letter-spacing:0.01em;}.cls-2,.cls-3{fill:#fff;}</style></defs><title>stick_guy</title><rect x="-49.68" y="-0.62" width="949.73" height="192.14"/><path class="cls-1" d="M503.27,13.35C415.33,13.35,344,43.43,344,80.53c0,7.28,2.76,14.29,7.84,20.86l-8.64,16.21-12,20.05L379,122.54c29.18,15.35,74,25.17,124.24,25.17,87.93,0,159.22-30.07,159.22-67.18S591.2,13.35,503.27,13.35Z"/><text class="cls-2" transform="translate(437.11 55.63)">Ah, what <tspan x="-16.07" y="33.6">shall I code </tspan><tspan x="7.23" y="67.2">today...?</tspan></text><circle class="cls-3" cx="276.56" cy="147.13" r="38.39"/><path d="M379.89,243.83c-6.91-.48-33.41-2.8-44.73-3.79l-4-.35c-7.51-.65-14-2-23.5-12.3l-4.44-4.84c-.1,4.33-.53,7.63-.55,7.8l-.3,2.25,1.14,1.23c9.46,10.3,15.6,10.83,21.55,11.35l3.75.33c11.37,1,38,3.32,44.92,3.81,11.38.79,16.72,6,16.33,15.87a.49.49,0,0,1,0,.12c2.13-1.9,3.22-4.74,3.38-8.71C393.75,248.33,389.7,244.52,379.89,243.83Z"/><path d="M259.92,237.41a1.36,1.36,0,0,1,1.88-2c1.24,1.29,7.32,8.54,12.1,13.89s12.8,13.2,16.93,16.11A51.41,51.41,0,0,0,317,275.61c13.89,1.41,43.52,4.25,51.31,4.71,7.56.44,12.61-1.08,15.43-4.62h0c.27-.35.52-.71.76-1.09l0-.06a10.56,10.56,0,0,0,.6-1.16.36.36,0,0,0,0-.09,12.43,12.43,0,0,0,.48-1.25l0-.11c.14-.44.26-.91.36-1.38l0-.1a19.91,19.91,0,0,0,.38-3.33c0-.58,0-1.15,0-1.7-.31-8.33-5.56-11.94-14.94-12.59-8-.55-42.22-3.57-48.7-4.13s-12.95-1.41-22.52-11.83c-8.54-9.29-19.77-21.54-19.77-21.54-.3-.33.09.09,0,0-1.89-1.93.32-4,2.07-2.16l1.33,1.44,1.85,2,13.31,14.51.09.1s-.09,0-.09-.1c1.05-28.58-14.72-36.61-34.83-36.61-15,0-26.06,5.35-31.26,37.45-6.16,38.06-11,79.12-9.57,92.35s7.88,27.59,25.34,30.13,73.49,4.78,73.49,4.78S317.73,404,316.61,415,313,440.6,328.15,443.14s19.71-3.38,22.24-25.34,7-43.92,8.45-56S365,324.32,331,322.35s-45.9-4.51-45.9-4.51l5.38-49h0l-1.16-.82-.17-.12c-4.37-3.07-12.45-11-17.43-16.56-2.06-2.3-4.31-4.94-6.34-7.33Z"/><path d="M385.66,271.94l0,.11Z"/><path d="M299.16,231.23h0l-.09-.1Z"/><path d="M386.05,270.46l0,.1Z"/><path d="M383.72,275.7Z"/><path d="M385.15,273.3a.36.36,0,0,1,0,.09A.36.36,0,0,0,385.15,273.3Z"/><path d="M384.51,274.55l0,.06Z"/><rect x="313.44" y="295.32" width="240.46" height="13.51" rx="6.76"/><rect x="301.52" y="364.89" width="144.08" height="13.51" rx="6.76" transform="translate(745.21 -1.92) rotate(90)"/><rect x="426.53" y="364.89" width="144.08" height="13.51" rx="6.76" transform="translate(870.22 -126.93) rotate(90)"/><path d="M458.73,283.31H373.46c-.87.06-1.77.11-2.72.11-.79,0-1.63,0-2.48-.07a4.3,4.3,0,0,0,.41,8.59h90.06a4.32,4.32,0,1,0,0-8.63Z"/><path d="M373.46,283.31h-4.79c-.14,0-.27,0-.41,0,.85,0,1.69.07,2.48.07C371.69,283.42,372.59,283.37,373.46,283.31Z"/><rect x="412.13" y="241.6" width="93.46" height="8.63" rx="4.32" transform="translate(75.39 598.01) rotate(-70.75)"/><rect x="207.02" y="360.89" width="97.78" height="9.39" rx="4.69"/><path d="M207,365.58s-1.69-76.27-19-109.12c-2.58-4.91,5.39-9.64,8.38-5,17.78,27.51,20,114.12,20,114.12a4.71,4.71,0,0,1-4.69,4.7h0A4.71,4.71,0,0,1,207,365.58Z"/><path d="M293.08,421.27c-2.55-3.16-11.44-10.61-33.78-11.39V380.41h8.44v-7.77H241.46v7.77h8.45v29.47c-22.34.78-31.24,8.23-33.79,11.39-2.72,3.38-2.63,7.79,0,8.07s4.55-7.53,15.6-9.29c9.46-1.5,22.88-1.35,22.88-1.35s13.42-.15,22.88,1.35c11.06,1.76,13,9.57,15.6,9.29S295.8,424.65,293.08,421.27Z"/><circle cx="224.73" cy="436.65" r="6.61"/><circle cx="284.47" cy="436.65" r="6.61"/><path d="M504.2,255.9v6.91c5.24,0,8,5.59,8,11.1a13.16,13.16,0,0,1-1.71,6.79,7.2,7.2,0,0,1-6.28,3.67v7.57H477.54v-36Zm0,23.47a2.19,2.19,0,0,0,2-1.27,8.27,8.27,0,0,0,1-4.19c0-3-1.2-6.1-3-6.1Z"/></svg>