<?xml version="1.0" encoding="iso-8859-1"?>
<!-- Generator: Adobe Illustrator 19.0.0, SVG Export Plug-In . SVG Version: 6.00 Build 0)  -->
<svg version="1.1" id="Layer_1" xmlns="http://www.w3.org/2000/svg" xmlns:xlink="http://www.w3.org/1999/xlink" x="0px" y="0px"
	 viewBox="0 0 488.024 488.024" style="enable-background:new 0 0 488.024 488.024;" xml:space="preserve">
<g transform="translate(0 -540.36)">
	<g>
		<g>
			<path d="M393.017,872.284c-2.5-5-8.5-7-13.4-4.5l-15.8,7.9v-19.2c0-5.5-4.5-10-10-10s-10,4.5-10,10v19.2l-15.8-7.9
				c-4.9-2.5-10.9-0.4-13.4,4.5s-0.4,10.9,4.5,13.4l12.3,6.1l-12.3,6.1c-5,2.5-7,8.5-4.7,13.4c1.8,3.5,5.3,5.5,9,5.5
				c1.5,0,3.1-0.4,4.5-1.1l15.8-7.9v19.2c0,5.5,4.5,10,10,10s10-4.5,10-10v-19.2l15.8,7.9c1.5,0.8,3,1.1,4.5,1.1c3.7,0,7.3-2,9-5.5
				c2.5-4.9,0.4-10.9-4.5-13.4l-12.3-6.1l12.3-6.1C393.517,883.184,395.517,877.184,393.017,872.284z"/>
			<path d="M342.317,963.484c-2.5-5-8.4-7-13.4-4.6l-16.2,8v-19.3c0-5.5-4.5-10-10-10s-10,4.5-10,10v19.3l-16.2-8
				c-5-2.4-11-0.4-13.4,4.6c-2.4,5-0.4,11,4.6,13.4l12.4,6.1l-12.4,6.1c-5,2.4-7,8.4-4.6,13.4c1.8,3.5,5.3,5.6,9,5.6
				c1.5,0,3-0.3,4.4-1l16.2-8v19.3c0,5.5,4.5,10,10,10s10-4.5,10-10v-19.3l16.2,8c1.4,0.7,2.9,1,4.4,1c3.7,0,7.3-2.1,9-5.6
				c2.4-5,0.4-11-4.6-13.4l-12.4-6.1l12.4-6.1C342.717,974.384,344.717,968.484,342.317,963.484z"/>
			<path d="M85.417,916.784c3.7,0,7.2-2,9-5.5c2.3-4.9,0.3-10.9-4.7-13.4l-12.3-6.1l12.3-6.1c4.9-2.5,7-8.5,4.5-13.4
				s-8.5-7-13.4-4.5l-15.8,7.9v-19.2c0-5.5-4.5-10-10-10s-10,4.5-10,10v19.2l-15.8-7.9c-4.9-2.5-10.9-0.5-13.4,4.5
				c-2.5,4.9-0.5,10.9,4.5,13.4l12.3,6.1l-12.3,6.1c-4.9,2.5-7,8.5-4.5,13.4c1.7,3.5,5.3,5.5,9,5.5c1.5,0,3-0.3,4.5-1.1l15.8-7.9
				v19.2c0,5.5,4.5,10,10,10c5.5,0,10-4.5,10-10v-19.2l15.8,7.9C82.317,916.384,83.917,916.784,85.417,916.784z"/>
			<path d="M145.717,963.484c-2.4-5-8.4-7-13.4-4.6l-16.2,8v-19.3c0-5.5-4.5-10-10-10s-10,4.5-10,10v19.3l-16.2-8
				c-5-2.4-10.9-0.4-13.4,4.6c-2.4,5-0.4,10.9,4.6,13.4l12.4,6.1l-12.4,6.1c-5,2.4-7,8.4-4.6,13.4c1.7,3.5,5.3,5.6,9,5.6
				c1.5,0,3-0.3,4.4-1l16.2-8v19.3c0,5.5,4.5,10,10,10s10-4.5,10-10v-19.3l16.2,8c1.4,0.7,2.9,1,4.4,1c3.7,0,7.2-2.1,9-5.6
				c2.4-5,0.4-11-4.6-13.4l-12.4-6.1l12.4-6.1C146.117,974.484,148.117,968.484,145.717,963.484z"/>
			<path d="M471.417,665.784L471.417,665.784c-2.3-3.2-6.2-4.7-10.1-3.9c-3.1,0.6-5.6,0.6-9.5,0.6c-39.5,0-71.7-32-71.7-71.4
				c0-13.1,3-24.5,9.3-35.8c1.9-3.3,1.7-7.5-0.5-10.6c-2.2-3.2-6-4.8-9.8-4.2c-22,3.5-42.1,14.6-56.5,31.2
				c-11.7,13.4-19.3,30-21.9,47.6c-13-4.7-27-7.3-41.7-7.3c-45.4,0-86.8,24.9-107.9,64.3c-7.5-2.2-16-3.2-25.2-3.2
				c-50.5,0-91.7,41-91.7,91.4s41.1,91.4,91.7,91.4h82.3l-38.5,44.5c-2.7,3.2-3.2,7.7-1.2,11.4s6.2,5.7,10.3,5l34.8-5.5l-33.4,39.7
				c-3.6,4.2-3,10.5,1.2,14.1c1.9,1.6,4.2,2.3,6.4,2.3c2.9,0,5.7-1.2,7.7-3.6l50.6-60.2c2.7-3.2,3.1-7.7,1-11.4
				c-2.1-3.7-6.2-5.6-10.3-5l-34.2,5.5l31.8-36.9h24.3c67.2,0,121.9-54.9,121.9-122.3c0-3.7-0.2-7.3-0.5-10.9
				c3.8,0.4,7.7,0.6,11.7,0.6c33.5,0,63.3-17.4,79.8-46.6C474.017,673.184,473.717,668.984,471.417,665.784z M259.217,835.884
				h-133.1c-39.5,0-71.7-32-71.7-71.4s32.1-71.4,71.7-71.4c10.1,0,19.1,1.7,26.1,4.8c2.4,1.1,5.2,1.2,7.7,0.2s4.5-2.9,5.6-5.3
				c16.3-36.9,53.1-60.8,93.7-60.8c56.2,0,101.9,45.5,101.9,101.5C361.117,789.984,315.417,835.884,259.217,835.884z
				 M392.317,703.184L392.317,703.184c-5.4,0-10.4-0.4-15.4-1.2c-8.5-31.4-29.3-57.8-56.9-73.7c1.9-27.6,19-51.3,43.6-62.4
				c-2.2,8-3.3,16.3-3.3,25.2c0,47.4,36.4,86.6,82.9,91C429.917,695.484,411.917,703.184,392.317,703.184z"/>
		</g>
	</g>
</g>
<g>
</g>
<g>
</g>
<g>
</g>
<g>
</g>
<g>
</g>
<g>
</g>
<g>
</g>
<g>
</g>
<g>
</g>
<g>
</g>
<g>
</g>
<g>
</g>
<g>
</g>
<g>
</g>
<g>
</g>
</svg>
